<svg width="132" height="28" viewBox="0 0 132 28" fill="none" xmlns="http://www.w3.org/2000/svg">
<path d="M35.158 19.162C35.158 19.75 35.086 20.254 34.942 20.674C34.81 21.094 34.624 21.436 34.384 21.7C34.156 21.976 33.886 22.18 33.574 22.312C33.262 22.444 32.932 22.51 32.584 22.51C32.056 22.51 31.642 22.348 31.342 22.024C31.042 21.712 30.886 21.316 30.874 20.836C31.306 20.62 31.618 20.362 31.81 20.062C32.002 19.774 32.098 19.378 32.098 18.874V10.378C32.23 10.342 32.416 10.306 32.656 10.27C32.908 10.234 33.178 10.216 33.466 10.216C34.066 10.216 34.498 10.318 34.762 10.522C35.026 10.714 35.158 11.092 35.158 11.656V19.162ZM31.864 7.822C31.864 7.366 32.014 6.982 32.314 6.67C32.626 6.358 33.034 6.202 33.538 6.202C34.042 6.202 34.444 6.358 34.744 6.67C35.056 6.982 35.212 7.366 35.212 7.822C35.212 8.278 35.056 8.662 34.744 8.974C34.444 9.286 34.042 9.442 33.538 9.442C33.034 9.442 32.626 9.286 32.314 8.974C32.014 8.662 31.864 8.278 31.864 7.822ZM46.158 14.626C46.158 15.346 46.044 15.994 45.816 16.57C45.6 17.146 45.282 17.638 44.862 18.046C44.454 18.442 43.962 18.748 43.386 18.964C42.81 19.18 42.162 19.288 41.442 19.288C40.722 19.288 40.074 19.186 39.498 18.982C38.922 18.766 38.424 18.46 38.004 18.064C37.596 17.656 37.278 17.164 37.05 16.588C36.834 16.012 36.726 15.358 36.726 14.626C36.726 13.918 36.84 13.276 37.068 12.7C37.296 12.124 37.614 11.638 38.022 11.242C38.442 10.834 38.94 10.522 39.516 10.306C40.092 10.09 40.734 9.982 41.442 9.982C42.15 9.982 42.792 10.096 43.368 10.324C43.944 10.54 44.436 10.852 44.844 11.26C45.264 11.656 45.588 12.142 45.816 12.718C46.044 13.294 46.158 13.93 46.158 14.626ZM41.442 12.376C40.938 12.376 40.548 12.574 40.272 12.97C39.996 13.354 39.858 13.906 39.858 14.626C39.858 15.382 39.996 15.952 40.272 16.336C40.548 16.708 40.938 16.894 41.442 16.894C41.946 16.894 42.336 16.702 42.612 16.318C42.888 15.934 43.026 15.37 43.026 14.626C43.026 13.906 42.888 13.354 42.612 12.97C42.336 12.574 41.946 12.376 41.442 12.376ZM51.43 17.056C51.634 17.056 51.856 17.038 52.096 17.002C52.348 16.954 52.534 16.894 52.654 16.822V15.382L51.358 15.49C51.022 15.514 50.746 15.586 50.53 15.706C50.314 15.826 50.206 16.006 50.206 16.246C50.206 16.486 50.296 16.684 50.476 16.84C50.668 16.984 50.986 17.056 51.43 17.056ZM51.286 9.982C51.934 9.982 52.522 10.048 53.05 10.18C53.59 10.312 54.046 10.516 54.418 10.792C54.802 11.056 55.096 11.398 55.3 11.818C55.504 12.226 55.606 12.712 55.606 13.276V17.308C55.606 17.62 55.516 17.878 55.336 18.082C55.168 18.274 54.964 18.442 54.724 18.586C53.944 19.054 52.846 19.288 51.43 19.288C50.794 19.288 50.218 19.228 49.702 19.108C49.198 18.988 48.76 18.808 48.388 18.568C48.028 18.328 47.746 18.022 47.542 17.65C47.35 17.278 47.254 16.846 47.254 16.354C47.254 15.526 47.5 14.89 47.992 14.446C48.484 14.002 49.246 13.726 50.278 13.618L52.636 13.366V13.24C52.636 12.892 52.48 12.646 52.168 12.502C51.868 12.346 51.43 12.268 50.854 12.268C50.41 12.268 49.966 12.316 49.522 12.412C49.09 12.508 48.7 12.628 48.352 12.772C48.196 12.664 48.064 12.502 47.956 12.286C47.848 12.058 47.794 11.824 47.794 11.584C47.794 11.272 47.866 11.026 48.01 10.846C48.166 10.654 48.4 10.492 48.712 10.36C49.06 10.228 49.468 10.132 49.936 10.072C50.416 10.012 50.866 9.982 51.286 9.982ZM50.044 6.13C50.296 6.13 50.542 6.16 50.782 6.22C51.022 6.268 51.25 6.328 51.466 6.4C51.694 6.46 51.898 6.52 52.078 6.58C52.27 6.628 52.438 6.652 52.582 6.652C52.846 6.652 53.05 6.574 53.194 6.418C53.338 6.262 53.44 6.13 53.5 6.022H53.572C53.956 6.022 54.286 6.16 54.562 6.436C54.838 6.7 54.976 7.042 54.976 7.462C54.976 8.002 54.808 8.398 54.472 8.65C54.136 8.902 53.716 9.028 53.212 9.028C52.924 9.028 52.654 9.004 52.402 8.956C52.162 8.896 51.94 8.836 51.736 8.776C51.532 8.704 51.34 8.644 51.16 8.596C50.98 8.536 50.818 8.506 50.674 8.506C50.41 8.506 50.206 8.584 50.062 8.74C49.93 8.884 49.828 9.016 49.756 9.136H49.684C49.3 9.136 48.97 9.004 48.694 8.74C48.418 8.476 48.28 8.128 48.28 7.696C48.28 7.432 48.328 7.204 48.424 7.012C48.532 6.808 48.67 6.64 48.838 6.508C49.006 6.376 49.192 6.28 49.396 6.22C49.612 6.16 49.828 6.13 50.044 6.13ZM66.531 14.626C66.531 15.346 66.417 15.994 66.189 16.57C65.973 17.146 65.655 17.638 65.235 18.046C64.827 18.442 64.335 18.748 63.759 18.964C63.183 19.18 62.535 19.288 61.815 19.288C61.095 19.288 60.447 19.186 59.871 18.982C59.295 18.766 58.797 18.46 58.377 18.064C57.969 17.656 57.651 17.164 57.423 16.588C57.207 16.012 57.099 15.358 57.099 14.626C57.099 13.918 57.213 13.276 57.441 12.7C57.669 12.124 57.987 11.638 58.395 11.242C58.815 10.834 59.313 10.522 59.889 10.306C60.465 10.09 61.107 9.982 61.815 9.982C62.523 9.982 63.165 10.096 63.741 10.324C64.317 10.54 64.809 10.852 65.217 11.26C65.637 11.656 65.961 12.142 66.189 12.718C66.417 13.294 66.531 13.93 66.531 14.626ZM61.815 12.376C61.311 12.376 60.921 12.574 60.645 12.97C60.369 13.354 60.231 13.906 60.231 14.626C60.231 15.382 60.369 15.952 60.645 16.336C60.921 16.708 61.311 16.894 61.815 16.894C62.319 16.894 62.709 16.702 62.985 16.318C63.261 15.934 63.399 15.37 63.399 14.626C63.399 13.906 63.261 13.354 62.985 12.97C62.709 12.574 62.319 12.376 61.815 12.376ZM75.3714 17.056C75.5754 17.056 75.7974 17.038 76.0374 17.002C76.2894 16.954 76.4754 16.894 76.5954 16.822V15.382L75.2994 15.49C74.9634 15.514 74.6874 15.586 74.4714 15.706C74.2554 15.826 74.1474 16.006 74.1474 16.246C74.1474 16.486 74.2374 16.684 74.4174 16.84C74.6094 16.984 74.9274 17.056 75.3714 17.056ZM75.2274 9.982C75.8754 9.982 76.4634 10.048 76.9914 10.18C77.5314 10.312 77.9874 10.516 78.3594 10.792C78.7434 11.056 79.0374 11.398 79.2414 11.818C79.4454 12.226 79.5474 12.712 79.5474 13.276V17.308C79.5474 17.62 79.4574 17.878 79.2774 18.082C79.1094 18.274 78.9054 18.442 78.6654 18.586C77.8854 19.054 76.7874 19.288 75.3714 19.288C74.7354 19.288 74.1594 19.228 73.6434 19.108C73.1394 18.988 72.7014 18.808 72.3294 18.568C71.9694 18.328 71.6874 18.022 71.4834 17.65C71.2914 17.278 71.1954 16.846 71.1954 16.354C71.1954 15.526 71.4414 14.89 71.9334 14.446C72.4254 14.002 73.1874 13.726 74.2194 13.618L76.5774 13.366V13.24C76.5774 12.892 76.4214 12.646 76.1094 12.502C75.8094 12.346 75.3714 12.268 74.7954 12.268C74.3514 12.268 73.9074 12.316 73.4634 12.412C73.0314 12.508 72.6414 12.628 72.2934 12.772C72.1374 12.664 72.0054 12.502 71.8974 12.286C71.7894 12.058 71.7354 11.824 71.7354 11.584C71.7354 11.272 71.8074 11.026 71.9514 10.846C72.1074 10.654 72.3414 10.492 72.6534 10.36C73.0014 10.228 73.4094 10.132 73.8774 10.072C74.3574 10.012 74.8074 9.982 75.2274 9.982ZM83.2004 19.144C82.6004 19.144 82.1684 19.048 81.9044 18.856C81.6404 18.652 81.5084 18.268 81.5084 17.704V7.264C81.6404 7.228 81.8264 7.192 82.0664 7.156C82.3184 7.12 82.5884 7.102 82.8764 7.102C83.4764 7.102 83.9084 7.204 84.1724 7.408C84.4364 7.6 84.5684 7.978 84.5684 8.542V18.982C84.4364 19.018 84.2444 19.054 83.9924 19.09C83.7524 19.126 83.4884 19.144 83.2004 19.144ZM91.3937 9.982C91.9817 9.982 92.5337 10.084 93.0497 10.288C93.5777 10.48 94.0337 10.768 94.4177 11.152C94.8017 11.536 95.1017 12.016 95.3177 12.592C95.5457 13.168 95.6597 13.834 95.6597 14.59C95.6597 15.346 95.5397 16.018 95.2997 16.606C95.0717 17.182 94.7477 17.668 94.3277 18.064C93.9077 18.46 93.3917 18.766 92.7797 18.982C92.1797 19.186 91.5137 19.288 90.7817 19.288C89.9897 19.288 89.3177 19.192 88.7657 19C88.2137 18.82 87.7457 18.592 87.3617 18.316C86.8337 17.944 86.5697 17.464 86.5697 16.876V7.264C86.7017 7.228 86.8877 7.192 87.1277 7.156C87.3797 7.12 87.6497 7.102 87.9377 7.102C88.5377 7.102 88.9697 7.204 89.2337 7.408C89.4977 7.6 89.6297 7.978 89.6297 8.542V10.324C89.8697 10.228 90.1337 10.15 90.4217 10.09C90.7217 10.018 91.0457 9.982 91.3937 9.982ZM90.8177 12.376C90.5777 12.376 90.3557 12.406 90.1517 12.466C89.9597 12.526 89.7797 12.604 89.6117 12.7V16.606C89.7437 16.678 89.8997 16.744 90.0797 16.804C90.2717 16.852 90.4937 16.876 90.7457 16.876C91.2857 16.876 91.7177 16.684 92.0417 16.3C92.3657 15.916 92.5277 15.346 92.5277 14.59C92.5277 13.822 92.3717 13.264 92.0597 12.916C91.7597 12.556 91.3457 12.376 90.8177 12.376ZM99.7788 15.832C99.9468 16.264 100.229 16.57 100.625 16.75C101.021 16.918 101.465 17.002 101.957 17.002C102.461 17.002 102.941 16.942 103.397 16.822C103.853 16.69 104.219 16.54 104.495 16.372C104.687 16.492 104.849 16.66 104.981 16.876C105.113 17.092 105.179 17.32 105.179 17.56C105.179 17.86 105.095 18.118 104.927 18.334C104.759 18.55 104.519 18.73 104.207 18.874C103.907 19.018 103.547 19.12 103.127 19.18C102.707 19.252 102.245 19.288 101.741 19.288C101.033 19.288 100.373 19.192 99.7608 19C99.1608 18.796 98.6388 18.496 98.1948 18.1C97.7508 17.704 97.4028 17.206 97.1508 16.606C96.8988 16.006 96.7728 15.304 96.7728 14.5C96.7728 13.708 96.8988 13.03 97.1508 12.466C97.4148 11.89 97.7568 11.422 98.1768 11.062C98.6088 10.69 99.0948 10.42 99.6348 10.252C100.175 10.072 100.727 9.982 101.291 9.982C101.927 9.982 102.503 10.078 103.019 10.27C103.547 10.462 103.997 10.726 104.369 11.062C104.753 11.398 105.047 11.8 105.251 12.268C105.455 12.736 105.557 13.246 105.557 13.798C105.557 14.206 105.443 14.518 105.215 14.734C104.987 14.95 104.669 15.088 104.261 15.148L99.7788 15.832ZM101.309 12.214C100.853 12.214 100.469 12.352 100.157 12.628C99.8568 12.904 99.6768 13.294 99.6168 13.798L102.677 13.294C102.665 13.174 102.629 13.054 102.569 12.934C102.509 12.802 102.425 12.682 102.317 12.574C102.209 12.466 102.071 12.382 101.903 12.322C101.735 12.25 101.537 12.214 101.309 12.214ZM110.09 18.982C109.958 19.018 109.766 19.054 109.514 19.09C109.274 19.126 109.01 19.144 108.722 19.144C108.122 19.144 107.69 19.048 107.426 18.856C107.162 18.652 107.03 18.268 107.03 17.704V12.358C107.03 12.01 107.12 11.71 107.3 11.458C107.48 11.194 107.726 10.966 108.038 10.774C108.458 10.522 108.944 10.33 109.496 10.198C110.06 10.066 110.648 10 111.26 10C112.568 10 113.222 10.462 113.222 11.386C113.222 11.602 113.192 11.806 113.132 11.998C113.072 12.178 113 12.334 112.916 12.466C112.688 12.418 112.358 12.394 111.926 12.394C111.614 12.394 111.29 12.43 110.954 12.502C110.63 12.574 110.342 12.682 110.09 12.826V18.982ZM117.76 19.27C116.704 19.27 115.888 19.03 115.312 18.55C114.748 18.07 114.466 17.29 114.466 16.21V8.218C114.598 8.182 114.784 8.146 115.024 8.11C115.276 8.062 115.54 8.038 115.816 8.038C116.404 8.038 116.83 8.14 117.094 8.344C117.358 8.548 117.49 8.926 117.49 9.478V10.45H119.848C119.92 10.582 119.986 10.75 120.046 10.954C120.118 11.146 120.154 11.362 120.154 11.602C120.154 12.022 120.058 12.328 119.866 12.52C119.686 12.7 119.44 12.79 119.128 12.79H117.49V15.994C117.49 16.306 117.586 16.528 117.778 16.66C117.982 16.792 118.264 16.858 118.624 16.858C118.804 16.858 118.99 16.846 119.182 16.822C119.374 16.786 119.542 16.744 119.686 16.696C119.794 16.828 119.884 16.978 119.956 17.146C120.04 17.302 120.082 17.494 120.082 17.722C120.082 18.178 119.908 18.55 119.56 18.838C119.224 19.126 118.624 19.27 117.76 19.27ZM130.568 14.626C130.568 15.346 130.454 15.994 130.226 16.57C130.01 17.146 129.692 17.638 129.272 18.046C128.864 18.442 128.372 18.748 127.796 18.964C127.22 19.18 126.572 19.288 125.852 19.288C125.132 19.288 124.484 19.186 123.908 18.982C123.332 18.766 122.834 18.46 122.414 18.064C122.006 17.656 121.688 17.164 121.46 16.588C121.244 16.012 121.136 15.358 121.136 14.626C121.136 13.918 121.25 13.276 121.478 12.7C121.706 12.124 122.024 11.638 122.432 11.242C122.852 10.834 123.35 10.522 123.926 10.306C124.502 10.09 125.144 9.982 125.852 9.982C126.56 9.982 127.202 10.096 127.778 10.324C128.354 10.54 128.846 10.852 129.254 11.26C129.674 11.656 129.998 12.142 130.226 12.718C130.454 13.294 130.568 13.93 130.568 14.626ZM125.852 12.376C125.348 12.376 124.958 12.574 124.682 12.97C124.406 13.354 124.268 13.906 124.268 14.626C124.268 15.382 124.406 15.952 124.682 16.336C124.958 16.708 125.348 16.894 125.852 16.894C126.356 16.894 126.746 16.702 127.022 16.318C127.298 15.934 127.436 15.37 127.436 14.626C127.436 13.906 127.298 13.354 127.022 12.97C126.746 12.574 126.356 12.376 125.852 12.376Z" fill="white"/>
<g clip-path="url(#clip0_1603_128)">
<path d="M14.4478 2C14.2711 2.96111 13.5192 3.61146 12.6644 3.95878C12.5153 4.01925 11.9959 4.14545 11.9204 4.21048C11.6094 4.4773 12.6216 4.72479 12.7765 4.73955C13.5195 4.80916 14.0268 4.59577 14.5851 4.12365C16.6329 5.58114 17.8552 7.81166 18.2344 10.3143C18.3645 11.1727 18.3694 12.015 18.4474 12.8728C18.7359 16.0475 19.2114 19.2135 20.2736 22.2188C20.4651 22.7602 21.0366 23.8858 20.9979 24.3959C20.9248 25.3623 19.9506 25.5135 19.1983 25.2822C17.9097 24.886 17.2844 24.4592 15.8727 25.0399C14.934 25.4259 14.4423 26.3196 13.3014 25.8812C12.3873 25.5296 11.8555 24.8775 10.7433 24.7991C9.29562 24.6972 8.86185 25.3992 7.71408 25.8608C6.54734 26.3301 6.12461 25.5026 5.18631 25.0867C3.77973 24.4631 3.1641 24.8726 1.8569 25.2674C0.664277 25.6277 -0.364431 25.0762 0.123869 23.7122C0.567652 22.4723 1.05733 21.3653 1.40622 20.0657C2.22925 16.9988 2.36625 14.17 2.69202 11.0472C3.07265 7.39755 5.09141 4.05299 8.66411 2.93967C9.9927 2.5259 10.902 2.67566 12.2258 2.59902C12.9981 2.55438 13.7469 2.31603 14.4478 2.0007V2ZM7.13227 8.50982C5.32676 8.63462 5.17251 10.9337 5.39061 12.3363C5.73086 14.525 8.22447 15.0017 8.94778 12.889C9.45229 11.4149 9.2549 8.36323 7.13227 8.50982ZM13.544 8.50877C11.7713 8.71301 11.6039 11.2747 11.9563 12.6369C12.5346 14.8727 15.2049 14.7335 15.6104 12.4411C15.8778 10.9288 15.6421 8.26691 13.5444 8.50877H13.544Z" fill="#EFEFEF"/>
</g>
<defs>
<clipPath id="clip0_1603_128">
<rect width="21" height="24" fill="white" transform="translate(0 2)"/>
</clipPath>
</defs>
</svg>
